# AST/ASF file generated using VICON BodyLanguage
# -----------------------------------------------
:version 1.10
:name VICON
:units
  mass 1.0
  length 0.45
  angle deg
:documentation
   .ast/.asf automatically generated from VICON data using
   VICON BodyBuilder and BodyLanguage model FoxedUp or BRILLIANT.MOD
:root
   order TX TY TZ RX RY RZ
   axis XYZ
   position 0 0 0  
   orientation 0 0 0 
:bonedata
  begin
     id 1 
     name lhipjoint
     direction 0.578396 -0.714046 0.394458 
     length 2.21935 
     axis 0 0 0  XYZ
  end
  begin
     id 2 
     name lfemur
     direction 0.34202 -0.939693 0  
     length 6.39105  
     axis 0 0 20  XYZ
    dof rx ry rz
    limits (-160.0 20.0)
           (-70.0 70.0)
           (-60.0 70.0)
  end
  begin
     id 3 
     name ltibia
     direction 0.34202 -0.939693 0   
     length 6.99037   
     axis 0 0 20   XYZ
    dof rx
    limits (-10.0 170.0)
  end
  begin
     id 4 
     name lfoot
     direction 0.0582372 -0.160005 0.985397   
     length 2.06111   
     axis -90 7.62852e-016 20   XYZ
    dof rx rz
    limits (-45.0 90.0)
           (-70.0 20.0)
  end
  begin
     id 5 
     name ltoes
     direction 1.53556e-011 -4.21875e-011 1   
     length 1.04074   
     axis -90 7.62852e-016 20   XYZ
    dof rx
    limits (-90.0 20.0)
  end
  begin
     id 6 
     name rhipjoint
     direction -0.558179 -0.726269 0.40121   
     length 2.182  
     axis 0 0 0  XYZ 
  end
  begin
     id 7 
     name rfemur
     direction -0.34202 -0.939693 0   
     length 6.51172   
     axis 0 0 -20   XYZ
    dof rx ry rz
    limits (-160.0 20.0)
           (-70.0 70.0)
           (-70.0 60.0)
  end
  begin
     id 8 
     name rtibia
     direction -0.34202 -0.939693 0   
     length 7.02607   
     axis 0 0 -20   XYZ
    dof rx
    limits (-10.0 170.0)
 end
 begin
     id 9 
     name rfoot
     direction -0.0788856 -0.216737 0.973038   
     length 1.96734  
     axis -90 -7.62852e-016 -20   XYZ
    dof rx rz
    limits (-45.0 90.0)
           (-20.0 70.0)
  end
  begin
     id 10 
     name rtoes
     direction -1.53567e-011 -4.21783e-011 1   
     length 0.990825   
     axis -90 -7.62852e-016 -20   XYZ
    dof rx
    limits (-90.0 20.0)
  end
  begin
     id 11 
     name lowerback
     direction 0.00668177 0.999323 -0.0361741   
     length 1.7655   
     axis 0 0 0   XYZ
    dof rx ry rz
    limits (-20.0 45.0)
           (-30.0 30.0)
           (-30.0 30.0)
  end
  begin
     id 12 
     name upperback
     direction -0.00222086 0.99851 0.0545167   
     length 1.74912   
     axis 0 0 0   XYZ
    dof rx ry rz
    limits (-20.0 45.0)
           (-30.0 30.0)
           (-30.0 30.0)
  end
  begin
     id 13 
     name thorax
     direction -0.00733971 0.997496 0.0703443   
     length 1.75715   
     axis 0 0 0   XYZ
    dof rx ry rz
    limits (-20.0 45.0)
           (-30.0 30.0)
           (-30.0 30.0)
  end
  begin
     id 14 
     name lowerneck
     direction 0.0279797 0.994795 0.0979765   
     length 1.46939   
     axis 0 0 0   XYZ
    dof rx ry rz
    limits (-20.0 45.0)
           (-30.0 30.0)
           (-30.0 30.0)
  end
  begin
     id 15 
     name upperneck
     direction 0.00339187 0.976776 -0.214238   
     length 1.48018   
     axis 0 0 0   XYZ
    dof rx ry rz
    limits (-20.0 45.0)
           (-30.0 30.0)
           (-30.0 30.0)
  end
  begin
     id 16
     name head
     direction -0.00263506 0.996603 -0.0823096  
     length 1.4976  
     axis 0 0 0   XYZ
    dof rx ry rz
    limits (-20.0 45.0)
           (-30.0 30.0)
           (-30.0 30.0)
  end
  begin
     id 17 
     name lclavicle
     direction 0.894044 0.44508 -0.0508781  
     length 3.03024  
     axis 0 0 0   XYZ
    dof ry rz
    limits (-20.0 10.0)
           (0.0 20.0)
  end
  begin
     id 18 
     name lhumerus
     direction 1 -4.48961e-011 -2.39475e-018   
     length 4.4661   
     axis 180 -30 -90   XYZ
    dof rx ry rz
    limits (-60.0 90.0)
           (-90.0 90.0)
           (-90.0 90.0)
  end
  begin
     id 19
     name lradius
     direction 1 -4.48961e-011 9.29328e-028   
     length 3.41414   
     axis 180 -30 -90   XYZ
    dof rx
    limits (-10.0 170.0)
  end
  begin
     id 20
     name lwrist
     direction 1 -4.48985e-011 1.53461e-026   
     length 1.70707   
     axis -1.09697e-014 90 90   XYZ
    dof ry
    limits (-180.0 0.0)
 end
  begin
     id 21 
     name lhand
     direction 1 -4.48966e-011 3.06923e-026   
     length 0.328298   
     axis -1.95843e-014 90 90   XYZ
    dof rx rz
    limits (-90.0 90.0)
           (-45.0 45.0)
  end
  begin
     id 22 
     name lfingers
     direction 1 -4.48893e-011 6.13845e-026   
     length 0.264682   
     axis -3.91686e-014 90 90   XYZ
    dof rx
    limits (0.0 90.0)
  end
  begin
     id 23
     name lthumb
     direction 0.707107 -6.34876e-011 0.707107   
     length 0.380032   
     axis -90 45 2.85299e-015   XYZ
    dof rx rz
    limits (-45.0 45.0)
           (-45.0 45.0)
  end
  begin
     id 24 
     name rclavicle
     direction -0.936955 0.347862 -0.0332887   
     length 3.26927  
     axis 0 0 0   XYZ 
    dof ry rz
    limits (-10.0 20.0)
           (-20.0 0.0)
  end
  begin
     id 25 
     name rhumerus
     direction -1 -4.4896e-011 1.78637e-018  
     length 4.40431   
     axis 180 30 90   XYZ
    dof rx ry rz
    limits (-90.0 60.0)
           (-90.0 90.0)
           (-90.0 90.0)
  end
  begin
     id 26 
     name rradius
     direction -1 -4.48955e-011 9.34036e-027   
     length 3.04688   
     axis 180 30 90   XYZ
    dof rx
    limits (-10.0 170.0)
  end
  begin
     id 27 
     name rwrist
     direction -1 -4.49011e-011 1.53461e-026   
     length 1.52344   
     axis -1.09697e-014 -90 -90   XYZ
    dof ry
    limits (-180.0 0.0)
  end
  begin
     id 28
     name rhand
     direction -1 -4.48834e-011 3.06923e-026   
     length 0.500489   
     axis -1.95843e-014 -90 -90   XYZ
    dof rx rz
    limits (-90.0 90.0)
           (-45.0 45.0)
  end
  begin
     id 29
     name rfingers
     direction -1 -4.48967e-011 6.13845e-026   
     length 0.403507   
     axis -3.91686e-014 -90 -90   XYZ
    dof rx
    limits (0.0 90.0)
  end
  begin
     id 30
     name rthumb
     direction -0.707107 -6.34826e-011 0.707107   
     length 0.579358   
     axis -90 -45 -2.85299e-015   XYZ
    dof rx rz
    limits (-45.0 45.0)
           (-45.0 45.0)
  end
:hierarchy
  begin
    root lhipjoint rhipjoint lowerback
    lhipjoint lfemur
    lfemur ltibia
    ltibia lfoot
    lfoot ltoes
    rhipjoint rfemur
    rfemur rtibia
    rtibia rfoot
    rfoot rtoes
    lowerback upperback
    upperback thorax
    thorax lowerneck lclavicle rclavicle
    lowerneck upperneck
    upperneck head
    lclavicle lhumerus
    lhumerus lradius
    lradius lwrist
    lwrist lhand lthumb
    lhand lfingers
    rclavicle rhumerus
    rhumerus rradius
    rradius rwrist
    rwrist rhand rthumb
    rhand rfingers
  end

#!OML:ASF H:\IndianDance\Patient Classification 1\Patient 1\Session 1\dancer.ASF
:FULLY-SPECIFIED
:DEGREES
209
root -3.12358 14.192 11.9579 -171.87 3.99692 -188.927
lowerback 2.9293 4.68241 2.96243
upperback -9.1033 7.13786 -7.09931
thorax -10.1524 3.35512 -10.2675
lowerneck -18.7759 -3.50249 -5.71494
upperneck 26.5431 -4.40045 1.1669
head 12.002 -2.73568 0.634981
rclavicle -8.2595e-014 5.24792e-014
rhumerus 1.0162 64.0297 -23.8655
rradius 89.3092
rwrist -3.58241
rhand -20.4947 24.3869
rfingers 7.12502
rthumb 5.86224 -5.51205
lclavicle -8.2595e-014 5.24792e-014
lhumerus 7.87309 -50.3794 0.260581
lradius 103.538
lwrist 16.067
lhand -38.7348 19.7171
lfingers 7.12502
lthumb -11.748 49.3677
rfemur -36.7638 -17.4369 8.23589
rtibia 74.2431
rfoot -25.771 -14.9239
rtoes 2.13054
lfemur -31.3496 18.1863 -36.2001
ltibia 54.0652
lfoot -30.3057 1.52102
ltoes 1.81556
210
root -3.12758 14.1812 11.9225 -172.254 4.44826 -189.089
lowerback 3.27544 4.62639 3.06217
upperback -8.90657 7.01928 -6.99123
thorax -10.1599 3.27066 -10.2145
lowerneck -18.6581 -3.76441 -5.84454
upperneck 26.2325 -4.67404 1.01432
head 11.8691 -2.88048 0.562063
rclavicle -1.0635e-014 8.50798e-014
rhumerus 2.39635 62.9338 -22.7105
rradius 87.1603
rwrist -4.67488
rhand -20.1203 23.4642
rfingers 7.12502
rthumb 6.22366 -6.4244
lclavicle -1.0635e-014 8.50798e-014
lhumerus 7.28158 -51.2224 1.08358
lradius 104.392
lwrist 14.478
lhand -40.5653 16.1803
lfingers 7.12502
lthumb -13.5126 45.7219
rfemur -37.7024 -16.8374 7.33842
rtibia 72.4951
rfoot -26.3604 -15.7872
rtoes 2.03887
lfemur -30.8143 18.2536 -36.2917
ltibia 54.0555
lfoot -30.4434 2.16682
ltoes 1.24537
211
root -3.13012 14.1746 11.8872 -172.617 4.88587 -189.145
lowerback 3.62605 4.56466 3.23134
upperback -8.70864 6.89871 -6.84306
thorax -10.1667 3.17968 -10.1553
lowerneck -18.5456 -4.02369 -5.96342
upperneck 25.8676 -4.9452 0.879295
head 11.7171 -3.01783 0.496339
rclavicle -4.80562e-014 -5.00937e-014
rhumerus 3.68145 61.6308 -21.7223
rradius 84.9417
rwrist -5.72692
rhand -20.3206 22.9574
rfingers 7.12502
rthumb 6.03031 -6.93674
lclavicle -4.80562e-014 -5.00937e-014
lhumerus 6.70678 -51.9997 1.88061
lradius 105.252
lwrist 12.8608
lhand -42.1005 12.5174
lfingers 7.12502
lthumb -14.992 41.9547
rfemur -38.6285 -16.3526 6.63124
rtibia 70.8283
rfoot -26.7813 -16.6198
rtoes 2.27388
lfemur -30.2904 18.3185 -36.2618
ltibia 54.033
lfoot -30.5496 2.78463
ltoes 0.709172
212
root -3.1312 14.1723 11.852 -172.947 5.31532 -189.105
lowerback 3.97163 4.49986 3.44802
upperback -8.51445 6.78025 -6.65324
thorax -10.1742 3.08674 -10.0754
lowerneck -18.4484 -4.2761 -6.05739
upperneck 25.461 -5.20578 0.738119
head 11.5517 -3.14628 0.427632
rclavicle 3.97569e-016 -2.46493e-014
rhumerus 4.84987 60.1027 -20.9201
rradius 82.7004
rwrist -6.73002
rhand -20.9591 22.7263
rfingers 7.12502
rthumb 5.41379 -7.18452
lclavicle 3.97569e-016 -2.46493e-014
lhumerus 6.17861 -52.7187 2.62545
lradius 106.133
lwrist 11.2418
lhand -43.2994 9.00692
lfingers 7.12502
lthumb -16.1467 38.3543
rfemur -39.5827 -15.9839 6.10498
rtibia 69.3665
rfoot -27.0653 -17.3032
rtoes 2.55464
lfemur -29.788 18.3864 -36.1268
ltibia 53.9918
lfoot -30.6291 3.34623
ltoes 0.278172
213
root -3.1307 14.1741 11.8169 -173.24 5.74076 -188.984
lowerback 4.30332 4.43647 3.68174
upperback -8.32411 6.66877 -6.41959
thorax -10.1796 2.99759 -9.95445
lowerneck -18.3679 -4.52272 -6.13299
upperneck 25.0185 -5.45545 0.588273
head 11.3758 -3.26705 0.35607
rclavicle -5.52621e-014 4.17448e-015
rhumerus 5.88892 58.3361 -20.3146
rradius 80.4622
rwrist -7.63281
rhand -21.9403 22.6557
rfingers 7.12502
rthumb 4.46643 -7.27719
lclavicle -5.52621e-014 4.17448e-015
lhumerus 5.71212 -53.4054 3.31561
lradius 106.969
lwrist 9.53878
lhand -44.2525 5.59332
lfingers 7.12502
lthumb -17.0642 34.8639
rfemur -40.5938 -15.7229 5.74168
rtibia 68.1928
rfoot -27.2345 -17.7802
rtoes 2.70478
lfemur -29.3074 18.4612 -35.9046
ltibia 53.9265
lfoot -30.6754 3.8574
ltoes -0.0425792
214
root -3.1287 14.1793 11.7818 -173.5 6.16943 -188.819
lowerback 4.6273 4.36911 3.91842
upperback -8.1415 6.5577 -6.16515
thorax -10.1911 2.90991 -9.8116
lowerneck -18.2938 -4.75283 -6.17434
upperneck 24.5378 -5.68681 0.435177
head 11.1858 -3.37508 0.282534
rclavicle -9.51682e-015 1.31198e-014
rhumerus 6.81041 56.3313 -19.9301
rradius 78.2548
rwrist -8.38108
rhand -23.1562 22.6019
rfingers 7.12502
rthumb 3.29228 -7.35245
lclavicle -9.51682e-015 1.31198e-014
lhumerus 5.32672 -54.075 3.8952
lradius 107.776
lwrist 7.83576
lhand -45.0346 2.5353
lfingers 7.12502
lthumb -17.817 31.7391
rfemur -41.67 -15.5546 5.49643
rtibia 67.3307
rfoot -27.3466 -18.0394
rtoes 2.53102
lfemur -28.8442 18.5447 -35.6344
ltibia 53.8352
lfoot -30.6976 4.31538
ltoes -0.192873
215
root -3.1249 14.1871 11.7464 -173.733 6.60482 -188.644
lowerback 4.93417 4.29992 4.11678
upperback -7.96266 6.44618 -5.89666
thorax -10.2019 2.82737 -9.62927
lowerneck -18.2261 -4.96423 -6.17972
upperneck 24.0231 -5.89656 0.272835
head 10.9831 -3.46995 0.20505
rclavicle 8.17253e-014 -2.32578e-014
rhumerus 7.65264 54.102 -19.7349
rradius 76.0926
rwrist -8.95869
rhand -24.5276 22.4815
rfingers 7.12502
rthumb 1.96778 -7.4892
lclavicle 8.17253e-014 -2.32578e-014
lhumerus 5.04134 -54.7429 4.35651
lradius 108.555
lwrist 6.21763
lhand -45.7527 -0.000707308
lfingers 7.12502
lthumb -18.5078 29.1388
rfemur -42.8114 -15.4586 5.3241
rtibia 66.7452
rfoot -27.4493 -18.0602
rtoes 2.10795
lfemur -28.3942 18.6414 -35.3535
ltibia 53.7184
lfoot -30.6972 4.74347
ltoes -0.284603
216
root -3.11893 14.1959 11.7105 -173.947 7.05231 -188.483
lowerback 5.23001 4.23264 4.26514
upperback -7.78789 6.33802 -5.62937
thorax -10.2143 2.7524 -9.4193
lowerneck -18.1556 -5.15752 -6.15357
upperneck 23.4767 -6.08919 0.112731
head 10.7678 -3.55321 0.128031
rclavicle -5.77718e-014 6.09275e-014
rhumerus 8.42222 51.6628 -19.7228
rradius 73.9934
rwrist -9.44607
rhand -25.9682 22.1821
rfingers 7.12502
rthumb 0.576466 -7.79685
lclavicle -5.77718e-014 6.09275e-014
lhumerus 4.88675 -55.4255 4.66038
lradius 109.317
lwrist 4.77675
lhand -46.477 -2.02901
lfingers 7.12502
lthumb -19.2044 27.0428
rfemur -43.9961 -15.4028 5.20007
rtibia 66.3523
rfoot -27.5096 -17.9721
rtoes 1.33273
lfemur -27.9523 18.7552 -35.0852
ltibia 53.5824
lfoot -30.6866 5.12781
ltoes -0.244026
217
root -3.11035 14.2046 11.6737 -174.149 7.51076 -188.353
lowerback 5.51481 4.16455 4.35338
upperback -7.61791 6.22797 -5.36918
thorax -10.2304 2.68293 -9.1823
lowerneck -18.0728 -5.32893 -6.1079
upperneck 22.9026 -6.2606 -0.0345627
head 10.5403 -3.62347 0.0579039
rclavicle 8.56607e-014 -4.08937e-014
rhumerus 9.18397 49.0617 -19.808
rradius 72.0002
rwrist -10.0132
rhand -27.413 21.7027
rfingers 7.12502
rthumb -0.81898 -8.27551
lclavicle 8.56607e-014 -4.08937e-014
lhumerus 4.82937 -56.1314 4.83436
lradius 110.077
lwrist 3.5966
lhand -47.2335 -3.57388
lfingers 7.12502
lthumb -19.9318 25.424
rfemur -45.197 -15.3605 5.0939
rtibia 66.051
rfoot -27.5403 -17.8087
rtoes 0.547239
lfemur -27.514 18.8879 -34.844
ltibia 53.431
lfoot -30.6584 5.52593
ltoes -0.301297
